# xmcd
#
# Track frame offsets: 
#        150
#        20547
#        41537
#        57555
#
# Disc length: 1039 seconds
#
# Revision: 0
# Processed by: cddbd v1.5PL3 Copyright (c) Steve Scherf et al.
# Submitted via: ExactAudioCopy v0.95a3
#
DISCID=2f040d04
DTITLE=Baby Boo - Love Letters
DYEAR=2003
DGENRE=
TTITLE0=Love Letters
TTITLE1=Tears (single version)
TTITLE2=ALONE AGAIN (NATURALLY)
TTITLE3=Love Letters (-one version)
EXTD=
EXTT0=
EXTT1=
EXTT2=
EXTT3=
PLAYORDER=
